<svg width="330" height="20" viewBox="0 0 330 20" fill="none" xmlns="http://www.w3.org/2000/svg">
<g clip-path="url(#clip0_513_64)">
<rect width="330" height="20" fill="white"/>
<path d="M276.15 15H275.16V11.4492C274.703 11.6133 274.27 11.7461 273.859 11.8477C273.449 11.9492 272.994 12 272.494 12C271.686 12 271.064 11.8145 270.631 11.4434C270.201 11.0684 269.986 10.5312 269.986 9.83203V6.43359H270.982V9.69141C270.982 10.1641 271.107 10.5215 271.357 10.7637C271.611 11.002 272.023 11.1211 272.594 11.1211C273.074 11.1211 273.504 11.0781 273.883 10.9922C274.266 10.9023 274.691 10.7754 275.16 10.6113V6.43359H276.15V15ZM279.279 8.57812V12.6152C279.279 12.6934 279.277 12.7949 279.273 12.9199C279.27 13.041 279.264 13.1719 279.256 13.3125C279.248 13.4492 279.24 13.582 279.232 13.7109C279.229 13.8359 279.223 13.9395 279.215 14.0215L282.719 8.57812H283.914V15H283.006V11.0625C283.006 10.9375 283.008 10.7773 283.012 10.582C283.016 10.3867 283.021 10.1953 283.029 10.0078C283.037 9.81641 283.043 9.66797 283.047 9.5625L279.555 15H278.354V8.57812H279.279ZM290.359 9.4043H288.244V15H287.283V9.4043H285.197V8.57812H290.359V9.4043ZM294.033 8.47266C294.799 8.47266 295.367 8.64453 295.738 8.98828C296.109 9.33203 296.295 9.88086 296.295 10.6348V15H295.586L295.398 14.0508H295.352C295.172 14.2852 294.984 14.4824 294.789 14.6426C294.594 14.7988 294.367 14.918 294.109 15C293.855 15.0781 293.543 15.1172 293.172 15.1172C292.781 15.1172 292.434 15.0488 292.129 14.9121C291.828 14.7754 291.59 14.5684 291.414 14.291C291.242 14.0137 291.156 13.6621 291.156 13.2363C291.156 12.5957 291.41 12.1035 291.918 11.7598C292.426 11.416 293.199 11.2285 294.238 11.1973L295.346 11.1504V10.7578C295.346 10.2031 295.227 9.81445 294.988 9.5918C294.75 9.36914 294.414 9.25781 293.98 9.25781C293.645 9.25781 293.324 9.30664 293.02 9.4043C292.715 9.50195 292.426 9.61719 292.152 9.75L291.854 9.01172C292.143 8.86328 292.475 8.73633 292.85 8.63086C293.225 8.52539 293.619 8.47266 294.033 8.47266ZM295.334 11.8359L294.355 11.877C293.555 11.9082 292.99 12.0391 292.662 12.2695C292.334 12.5 292.17 12.8262 292.17 13.248C292.17 13.6152 292.281 13.8867 292.504 14.0625C292.727 14.2383 293.021 14.3262 293.389 14.3262C293.959 14.3262 294.426 14.168 294.789 13.8516C295.152 13.5352 295.334 13.0605 295.334 12.4277V11.8359ZM302.676 9.4043H300.561V15H299.6V9.4043H297.514V8.57812H302.676V9.4043ZM304.926 11.2266H306.895C307.441 11.2266 307.896 11.2949 308.26 11.4316C308.623 11.5684 308.895 11.7715 309.074 12.041C309.258 12.3105 309.35 12.6445 309.35 13.043C309.35 13.4414 309.26 13.7871 309.08 14.0801C308.904 14.373 308.631 14.5996 308.26 14.7598C307.893 14.9199 307.418 15 306.836 15H303.947V8.57812H304.926V11.2266ZM308.371 13.0898C308.371 12.6953 308.23 12.4219 307.949 12.2695C307.672 12.1133 307.283 12.0352 306.783 12.0352H304.926V14.209H306.789C307.258 14.209 307.639 14.123 307.932 13.9512C308.225 13.7754 308.371 13.4883 308.371 13.0898Z" fill="#1473E6"/>
<g clip-path="url(#clip1_513_64)">
<path d="M314.167 10H325.833" stroke="#1473E6" stroke-width="1.25" stroke-linecap="round" stroke-linejoin="round"/>
<path d="M322.5 13.3333L325.833 10" stroke="#1473E6" stroke-width="1.25" stroke-linecap="round" stroke-linejoin="round"/>
<path d="M322.5 6.66667L325.833 10" stroke="#1473E6" stroke-width="1.25" stroke-linecap="round" stroke-linejoin="round"/>
</g>
<path d="M5.88867 9.43164C5.88867 9.81445 5.81445 10.1465 5.66602 10.4277C5.51758 10.709 5.31055 10.9395 5.04492 11.1191C4.7793 11.2949 4.4668 11.418 4.10742 11.4883V11.5352C4.78711 11.6211 5.29688 11.8398 5.63672 12.1914C5.98047 12.543 6.15234 13.0039 6.15234 13.5742C6.15234 14.0703 6.03516 14.5098 5.80078 14.8926C5.57031 15.2754 5.21484 15.5762 4.73438 15.7949C4.25781 16.0098 3.64648 16.1172 2.90039 16.1172C2.44727 16.1172 2.02734 16.0801 1.64062 16.0059C1.25781 15.9355 0.890625 15.8164 0.539062 15.6484V14.7344C0.894531 14.9102 1.28125 15.0488 1.69922 15.1504C2.11719 15.248 2.52148 15.2969 2.91211 15.2969C3.69336 15.2969 4.25781 15.1426 4.60547 14.834C4.95312 14.5215 5.12695 14.0957 5.12695 13.5566C5.12695 13.1855 5.0293 12.8867 4.83398 12.6602C4.64258 12.4297 4.36523 12.2617 4.00195 12.1562C3.64258 12.0469 3.20898 11.9922 2.70117 11.9922H1.8457V11.1602H2.70703C3.17188 11.1602 3.56641 11.0918 3.89062 10.9551C4.21484 10.8184 4.46094 10.627 4.62891 10.3809C4.80078 10.1309 4.88672 9.83594 4.88672 9.49609C4.88672 9.0625 4.74219 8.72852 4.45312 8.49414C4.16406 8.25586 3.77148 8.13672 3.27539 8.13672C2.9707 8.13672 2.69336 8.16797 2.44336 8.23047C2.19336 8.29297 1.95898 8.37891 1.74023 8.48828C1.52148 8.59766 1.30273 8.72461 1.08398 8.86914L0.591797 8.20117C0.904297 7.95898 1.28516 7.75 1.73438 7.57422C2.18359 7.39844 2.69336 7.31055 3.26367 7.31055C4.13867 7.31055 4.79492 7.50977 5.23242 7.9082C5.66992 8.30664 5.88867 8.81445 5.88867 9.43164ZM17.7891 9.57812V16H16.9102V11.8164C16.9102 11.6445 16.9141 11.4707 16.9219 11.2949C16.9336 11.1152 16.9473 10.9355 16.9629 10.7559H16.9277L14.7949 16H13.9688L11.8887 10.7559H11.8535C11.8652 10.9355 11.873 11.1152 11.877 11.2949C11.8848 11.4707 11.8887 11.6562 11.8887 11.8516V16H11.0039V9.57812H12.3105L14.3848 14.8281L16.4883 9.57812H17.7891ZM20.7363 9.57812V13.6152C20.7363 13.6934 20.7344 13.7949 20.7305 13.9199C20.7266 14.041 20.7207 14.1719 20.7129 14.3125C20.7051 14.4492 20.6973 14.582 20.6895 14.7109C20.6855 14.8359 20.6797 14.9395 20.6719 15.0215L24.1758 9.57812H25.3711V16H24.4629V12.0625C24.4629 11.9375 24.4648 11.7773 24.4688 11.582C24.4727 11.3867 24.4785 11.1953 24.4863 11.0078C24.4941 10.8164 24.5 10.668 24.5039 10.5625L21.0117 16H19.8105V9.57812H20.7363ZM28.418 9.57812V12.2734H31.998V9.57812H32.9707V16H31.998V13.0996H28.418V16H27.4395V9.57812H28.418ZM34.0195 9.57812H35.0625L36.4805 13.3047C36.5625 13.5234 36.6387 13.7344 36.709 13.9375C36.7793 14.1367 36.8418 14.3281 36.8965 14.5117C36.9512 14.6953 36.9941 14.873 37.0254 15.0449H37.0664C37.1211 14.8496 37.1992 14.5938 37.3008 14.2773C37.4023 13.957 37.5117 13.6309 37.6289 13.2988L38.9707 9.57812H40.0195L37.2246 16.9434C37.0762 17.3379 36.9023 17.6816 36.7031 17.9746C36.5078 18.2676 36.2695 18.4922 35.9883 18.6484C35.707 18.8086 35.3672 18.8887 34.9688 18.8887C34.7852 18.8887 34.623 18.877 34.4824 18.8535C34.3418 18.834 34.2207 18.8105 34.1191 18.7832V18.0039C34.2051 18.0234 34.3086 18.041 34.4297 18.0566C34.5547 18.0723 34.6836 18.0801 34.8164 18.0801C35.0586 18.0801 35.2676 18.0332 35.4434 17.9395C35.623 17.8496 35.7773 17.7168 35.9062 17.541C36.0352 17.3652 36.1465 17.1562 36.2402 16.9141L36.5918 16.0117L34.0195 9.57812ZM45.4219 10.4043H43.3066V16H42.3457V10.4043H40.2598V9.57812H45.4219V10.4043ZM46.6934 16V9.57812H47.6719V12.2266H49.4297C49.9766 12.2266 50.4258 12.2949 50.7773 12.4316C51.1328 12.5684 51.3965 12.7715 51.5684 13.041C51.7402 13.3105 51.8262 13.6445 51.8262 14.043C51.8262 14.4414 51.7402 14.7871 51.5684 15.0801C51.4004 15.373 51.1348 15.5996 50.7715 15.7598C50.4121 15.9199 49.9434 16 49.3652 16H46.6934ZM47.6719 15.209H49.2715C49.7559 15.209 50.1426 15.123 50.4316 14.9512C50.7207 14.7793 50.8652 14.4922 50.8652 14.0898C50.8652 13.6953 50.7305 13.4219 50.4609 13.2695C50.1914 13.1133 49.8047 13.0352 49.3008 13.0352H47.6719V15.209ZM52.8867 16V9.57812H53.8594V16H52.8867Z" fill="#6E6E6E"/>
</g>
<defs>
<clipPath id="clip0_513_64">
<rect width="330" height="20" fill="white"/>
</clipPath>
<clipPath id="clip1_513_64">
<rect width="20" height="20" fill="white" transform="translate(310)"/>
</clipPath>
</defs>
</svg>
